<svg width="100" height="100" viewBox="0 0 100 100" fill="none" xmlns="http://www.w3.org/2000/svg">
<rect x="100" y="100" width="100" height="100" rx="17" transform="rotate(180 100 100)" fill="#B74EFE"/>
<path d="M69.354 29C78.1947 29 86 34.5909 86 48.2576V70H73.4159V48.6458C73.4159 43.5208 71.1858 39.6383 65.3717 39.6383C60.5133 39.6383 57.2478 43.8314 56.292 47.5587V70H43.708V48.6458C43.708 43.5208 40.4425 39.6383 35.6637 39.6383C30.4867 39.6383 27.3805 43.0549 26.5841 47.5587V70H14V29.6212H26.5841V36.9981C26.7434 35.1345 30.8053 29 38.9292 29C44.9027 29 50.6372 32.1061 54.0619 37.7746C55.0177 35.6004 59.7965 29 69.354 29Z" fill="white"/>
</svg>
