<svg width="130" height="34" viewBox="0 0 130 34" fill="none" xmlns="http://www.w3.org/2000/svg">
<path id="Vector" d="M26.196 6.76749C30.3798 6.76749 34.0736 9.4896 34.0736 16.1437V26.7297H28.1183V16.3327C28.1183 13.8374 27.0629 11.9471 24.3114 11.9471C22.0122 11.9471 20.4668 13.9887 20.0145 15.8034V26.7297H14.0591V16.3327C14.0591 13.8374 12.5138 11.9471 10.2522 11.9471C7.80226 11.9471 6.33227 13.6106 5.95535 15.8034V26.7297H0V7.06994H5.95535V10.6616C6.03073 9.75425 7.95303 6.76749 11.7976 6.76749C14.6245 6.76749 17.3384 8.27977 18.9591 11.0397C19.4114 9.9811 21.6729 6.76749 26.196 6.76749ZM47.4166 6.72968C51.8643 6.72968 57.7443 10.0945 57.7443 16.9754C57.7443 23.8941 51.8643 27.1078 47.4166 27.1078C42.969 27.1078 37.089 23.8941 37.089 16.9754C37.089 10.0945 42.969 6.72968 47.4166 6.72968ZM47.4166 11.9849C45.1551 11.9849 42.8559 13.724 42.8559 16.9754C42.8559 20.1134 45.1551 21.8526 47.4166 21.8526C49.6782 21.8526 52.0151 20.1134 52.0151 16.9754C52.0151 13.724 49.6782 11.9849 47.4166 11.9849ZM70.7104 6.72968C75.158 6.72968 81.038 10.0945 81.038 16.9754C81.038 23.8941 75.158 27.1078 70.7104 27.1078C66.2627 27.1078 60.3827 23.8941 60.3827 16.9754C60.3827 10.0945 66.2627 6.72968 70.7104 6.72968ZM70.7104 11.9849C68.4488 11.9849 66.1496 13.724 66.1496 16.9754C66.1496 20.1134 68.4488 21.8526 70.7104 21.8526C72.9719 21.8526 75.3088 20.1134 75.3088 16.9754C75.3088 13.724 72.9719 11.9849 70.7104 11.9849ZM98.3763 0H104.332V9.60302V26.7297H98.3763V24.7637C98.1125 25.4442 96.341 27.1078 93.3256 27.1078C88.8402 27.1078 83.6764 23.8941 83.6764 16.862C83.6764 10.0945 88.8402 6.72968 93.3256 6.72968C96.341 6.72968 98.1125 8.46881 98.3763 8.88469V0ZM94.1925 21.8526C96.6425 21.8526 98.6402 20.1512 98.6402 16.862C98.6402 13.6862 96.6425 11.9849 94.1925 11.9849C91.6295 11.9849 89.4433 13.724 89.4433 16.862C89.4433 20.1134 91.6295 21.8526 94.1925 21.8526ZM124.082 6.99433H130L118.014 33.913H112.059L115.677 26.0492L107.196 6.99433H113.114L118.617 19.6219L124.082 6.99433Z" fill="#181818"/>
</svg>
